<svg width="25" height="24" viewBox="0 0 25 24" fill="none" xmlns="http://www.w3.org/2000/svg">
<path d="M7.03702 17.7871C7.03702 18.3028 7.45888 18.7246 7.97449 18.7246H8.91197V22.0059C8.91197 22.784 9.54008 23.4121 10.3182 23.4121C11.0963 23.4121 11.7244 22.784 11.7244 22.0059V18.7246H13.5994V22.0059C13.5994 22.784 14.2275 23.4121 15.0056 23.4121C15.7837 23.4121 16.4118 22.784 16.4118 22.0059V18.7246H17.3493C17.8649 18.7246 18.2867 18.3028 18.2867 17.7871V8.41214H7.03702V17.7871ZM4.69333 8.41214C3.91522 8.41214 3.28711 9.04027 3.28711 9.81839V16.3809C3.28711 17.159 3.91522 17.7871 4.69333 17.7871C5.47143 17.7871 6.09954 17.159 6.09954 16.3809V9.81839C6.09954 9.04027 5.47143 8.41214 4.69333 8.41214ZM20.6304 8.41214C19.8523 8.41214 19.2242 9.04027 19.2242 9.81839V16.3809C19.2242 17.159 19.8523 17.7871 20.6304 17.7871C21.4085 17.7871 22.0367 17.159 22.0367 16.3809V9.81839C22.0367 9.04027 21.4085 8.41214 20.6304 8.41214ZM15.9712 2.93714L17.1899 1.71839C17.3774 1.53089 17.3774 1.24026 17.1899 1.05276C17.0024 0.865265 16.7118 0.865265 16.5243 1.05276L15.1368 2.44026C14.3962 2.06526 13.5525 1.84964 12.6619 1.84964C11.7619 1.84964 10.9182 2.06526 10.1682 2.44026L8.77135 1.05276C8.58386 0.865265 8.29324 0.865265 8.10574 1.05276C7.91825 1.24026 7.91825 1.53089 8.10574 1.71839L9.33384 2.94652C7.94637 3.96839 7.03702 5.60901 7.03702 7.47464H18.2867C18.2867 5.60901 17.3774 3.95901 15.9712 2.93714ZM10.7869 5.59964H9.84945V4.66214H10.7869V5.59964ZM15.4743 5.59964H14.5368V4.66214H15.4743V5.59964Z" fill="#2C2C2C"/>
</svg>
