<svg width="32" height="32" viewBox="0 0 32 32" fill="none" xmlns="http://www.w3.org/2000/svg">
<path d="M8.71619 23.7162C8.71619 24.4037 9.27867 24.9662 9.96616 24.9662H11.2161V29.3412C11.2161 30.3787 12.0536 31.2162 13.0911 31.2162C14.1286 31.2162 14.966 30.3787 14.966 29.3412V24.9662H17.466V29.3412C17.466 30.3787 18.3035 31.2162 19.3409 31.2162C20.3784 31.2162 21.2159 30.3787 21.2159 29.3412V24.9662H22.4659C23.1533 24.9662 23.7158 24.4037 23.7158 23.7162V11.2162H8.71619V23.7162ZM5.59126 11.2162C4.55379 11.2162 3.71631 12.0537 3.71631 13.0912V21.8412C3.71631 22.8787 4.55379 23.7162 5.59126 23.7162C6.62874 23.7162 7.46622 22.8787 7.46622 21.8412V13.0912C7.46622 12.0537 6.62874 11.2162 5.59126 11.2162ZM26.8407 11.2162C25.8033 11.2162 24.9658 12.0537 24.9658 13.0912V21.8412C24.9658 22.8787 25.8033 23.7162 26.8407 23.7162C27.8782 23.7162 28.7157 22.8787 28.7157 21.8412V13.0912C28.7157 12.0537 27.8782 11.2162 26.8407 11.2162ZM20.6284 3.91619L22.2534 2.29119C22.5033 2.04119 22.5033 1.65369 22.2534 1.40369C22.0034 1.15369 21.6159 1.15369 21.3659 1.40369L19.5159 3.25369C18.5284 2.75369 17.4035 2.46619 16.216 2.46619C15.016 2.46619 13.8911 2.75369 12.8911 3.25369L11.0286 1.40369C10.7786 1.15369 10.3911 1.15369 10.1412 1.40369C9.89116 1.65369 9.89116 2.04119 10.1412 2.29119L11.7786 3.92869C9.92866 5.29119 8.71619 7.47869 8.71619 9.96619H23.7158C23.7158 7.47869 22.5033 5.27869 20.6284 3.91619ZM13.7161 7.46619H12.4661V6.21619H13.7161V7.46619ZM19.9659 7.46619H18.7159V6.21619H19.9659V7.46619Z" fill="white"/>
</svg>
