<svg width="25" height="24" viewBox="0 0 25 24" fill="none" xmlns="http://www.w3.org/2000/svg">
<path d="M16.9688 0.999756C15.8158 1.06676 14.4921 1.7091 13.7051 2.5271C12.9941 3.2711 12.4331 4.37607 12.6621 5.44507C13.9151 5.47807 15.1728 4.81908 15.9258 3.98608C16.6288 3.20708 17.1617 2.11976 16.9688 0.999756ZM17.0371 5.44312C15.2281 5.44312 14.4718 6.55444 13.2188 6.55444C11.9298 6.55444 10.7514 5.51343 9.19141 5.51343C7.06941 5.51443 3.84375 7.48008 3.84375 12.1111C3.84375 16.3241 7.66141 20.9998 9.81641 20.9998C11.1254 21.0128 11.4427 20.1767 13.2188 20.1677C14.9967 20.1547 15.3804 21.0108 16.6914 20.9998C18.1674 20.9888 19.3201 19.3668 20.1621 18.0818C20.7661 17.1618 21.0144 16.6921 21.4824 15.6521C18.0094 14.7721 17.3184 9.17143 21.4824 8.01343C20.6964 6.67243 18.4021 5.44312 17.0371 5.44312Z" fill="#2C2C2C"/>
</svg>
