<svg width="32" height="32" viewBox="0 0 32 32" fill="none" xmlns="http://www.w3.org/2000/svg">
<path d="M21.9585 1.33301C20.4212 1.42234 18.6563 2.2788 17.6069 3.36947C16.6589 4.36147 15.911 5.83476 16.2163 7.26009C17.887 7.30409 19.5639 6.42545 20.5679 5.31478C21.5052 4.27611 22.2158 2.82634 21.9585 1.33301ZM22.0496 7.25749C19.6376 7.25749 18.6292 8.73926 16.9585 8.73926C15.2398 8.73926 13.6687 7.35124 11.5887 7.35124C8.75937 7.35257 4.4585 9.97344 4.4585 16.1481C4.4585 21.7654 9.5487 27.9997 12.422 27.9997C14.1674 28.017 14.5905 26.9023 16.9585 26.8903C19.3292 26.873 19.8407 28.0143 21.5887 27.9997C23.5567 27.985 25.0936 25.8224 26.2163 24.109C27.0216 22.8824 27.3527 22.2561 27.9767 20.8695C23.3461 19.6961 22.4247 12.2286 27.9767 10.6846C26.9287 8.89657 23.8696 7.25749 22.0496 7.25749Z" fill="white"/>
</svg>
