<svg viewBox="0 0 25 25" fill="none" xmlns="http://www.w3.org/2000/svg">
<path d="M12.3237 16.9741C13.5737 16.9741 14.6362 16.5366 15.5112 15.6616C16.3862 14.7866 16.8237 13.7241 16.8237 12.4741C16.8237 11.2241 16.3862 10.1616 15.5112 9.28664C14.6362 8.41164 13.5737 7.97414 12.3237 7.97414C11.0737 7.97414 10.0112 8.41164 9.13622 9.28664C8.26122 10.1616 7.82372 11.2241 7.82372 12.4741C7.82372 13.7241 8.26122 14.7866 9.13622 15.6616C10.0112 16.5366 11.0737 16.9741 12.3237 16.9741ZM12.3248 15.0486C11.6099 15.0486 11.002 14.7984 10.5009 14.298C9.99982 13.7976 9.74927 13.19 9.74927 12.4752C9.74927 11.7604 9.99947 11.1524 10.4999 10.6513C11.0002 10.1502 11.6078 9.89969 12.3227 9.89969C13.0375 9.89969 13.6455 10.1499 14.1466 10.6503C14.6476 11.1507 14.8982 11.7583 14.8982 12.4731C14.8982 13.1879 14.648 13.7959 14.1476 14.297C13.6472 14.7981 13.0396 15.0486 12.3248 15.0486ZM12.3237 20.1595C10.0665 20.1595 8.00506 19.5555 6.13947 18.3475C4.27391 17.1396 2.8038 15.5403 1.72915 13.5497C1.63387 13.3798 1.5634 13.2047 1.51775 13.0244C1.47208 12.8442 1.44925 12.6607 1.44925 12.4741C1.44925 12.2875 1.47208 12.1041 1.51775 11.9239C1.5634 11.7436 1.63387 11.5685 1.72915 11.3986C2.8038 9.40801 4.27391 7.80874 6.13947 6.60077C8.00506 5.3928 10.0665 4.78882 12.3237 4.78882C14.581 4.78882 16.6424 5.3928 18.508 6.60077C20.3735 7.80874 21.8437 9.40801 22.9183 11.3986C23.0136 11.5685 23.084 11.7436 23.1297 11.9239C23.1754 12.1041 23.1982 12.2875 23.1982 12.4741C23.1982 12.6607 23.1754 12.8442 23.1297 13.0244C23.084 13.2047 23.0136 13.3798 22.9183 13.5497C21.8437 15.5403 20.3735 17.1396 18.508 18.3475C16.6424 19.5555 14.581 20.1595 12.3237 20.1595ZM12.3242 17.9741C14.2032 17.9741 15.9283 17.4773 17.4993 16.4836C19.0703 15.49 20.2725 14.1535 21.1058 12.4741C20.2725 10.7948 19.0701 9.45829 17.4987 8.46464C15.9274 7.47098 14.2022 6.97414 12.3232 6.97414C10.4442 6.97414 8.71919 7.47098 7.14817 8.46464C5.57716 9.45829 4.37498 10.7948 3.54165 12.4741C4.37498 14.1535 5.57734 15.49 7.14872 16.4836C8.72009 17.4773 10.4453 17.9741 12.3242 17.9741Z" fill="currentColor"/>
</svg>
