<svg viewBox="0 0 25 25" fill="none" xmlns="http://www.w3.org/2000/svg">
<path d="M16.4596 14.1724L14.7525 12.4654C14.904 11.7375 14.7157 11.1168 14.1876 10.6034C13.6595 10.09 13.0252 9.88801 12.2846 9.99743L10.6254 8.33818C10.8967 8.21681 11.1735 8.12578 11.4555 8.06508C11.7376 8.00439 12.027 7.97405 12.3237 7.97405C13.5737 7.97405 14.6362 8.41155 15.5112 9.28655C16.3862 10.1616 16.8237 11.2241 16.8237 12.4741C16.8237 12.7708 16.7944 13.0612 16.7357 13.3453C16.677 13.6293 16.585 13.905 16.4596 14.1724ZM19.815 17.4898L18.2455 15.9583C18.8549 15.479 19.4016 14.9484 19.8857 14.3667C20.3697 13.785 20.7784 13.1541 21.1118 12.4741C20.2705 10.7947 19.0653 9.4582 17.4963 8.46455C15.9273 7.47088 14.2031 6.97405 12.3237 6.97405C11.8603 6.97405 11.4074 7.00439 10.965 7.06508C10.5226 7.12578 10.0781 7.2188 9.63133 7.34415L7.92591 5.63873C8.63387 5.35141 9.35434 5.13791 10.0873 4.99823C10.8203 4.85856 11.5658 4.78873 12.3237 4.78873C14.635 4.78873 16.7504 5.39769 18.6699 6.61563C20.5895 7.83356 22.0553 9.47713 23.0672 11.5463C23.1379 11.6916 23.1918 11.8421 23.2292 11.9977C23.2665 12.1533 23.2852 12.3121 23.2852 12.4741C23.2852 12.636 23.2717 12.7958 23.2447 12.9534C23.2177 13.111 23.1688 13.2625 23.0982 13.4078C22.7275 14.2125 22.2629 14.9586 21.7042 15.6463C21.1455 16.334 20.5158 16.9485 19.815 17.4898ZM12.3237 20.1594C10.0665 20.1594 7.99991 19.5512 6.12401 18.3349C4.24809 17.1186 2.77281 15.5132 1.69818 13.5186C1.60688 13.3614 1.53841 13.1946 1.49276 13.0184C1.44709 12.8421 1.42426 12.6607 1.42426 12.4741C1.42426 12.2875 1.44292 12.1082 1.48026 11.9363C1.51757 11.7644 1.58188 11.5934 1.67318 11.4235C1.99855 10.7688 2.37808 10.1453 2.81178 9.55285C3.24546 8.96047 3.73568 8.41627 4.28243 7.92025L2.26721 5.886C2.07192 5.67803 1.97745 5.43157 1.98378 5.1466C1.99011 4.86163 2.09093 4.62151 2.28623 4.42623C2.48151 4.23094 2.72581 4.1333 3.01911 4.1333C3.31241 4.1333 3.5567 4.23094 3.75198 4.42623L20.7819 21.4561C20.9772 21.6514 21.078 21.8915 21.0843 22.1765C21.0907 22.4615 20.9898 22.7079 20.7819 22.9159C20.5866 23.1112 20.3433 23.2088 20.052 23.2088C19.7607 23.2088 19.5174 23.1112 19.3221 22.9159L15.9596 19.5974C15.3723 19.7887 14.7746 19.9302 14.1667 20.0219C13.5587 20.1135 12.9444 20.1594 12.3237 20.1594ZM5.81993 9.4398C5.35253 9.87313 4.92681 10.3422 4.54276 10.8469C4.15869 11.3516 3.82499 11.894 3.54166 12.4741C4.37499 14.1574 5.57716 15.4949 7.14818 16.4866C8.7192 17.4782 10.4444 17.9741 12.3237 17.9741C12.6371 17.9741 12.9442 17.9552 13.2449 17.9175C13.5456 17.8798 13.8527 17.838 14.1661 17.792L13.2661 16.842C13.1027 16.888 12.9456 16.9215 12.7949 16.9425C12.6442 16.9635 12.4871 16.9741 12.3237 16.9741C11.0737 16.9741 10.0112 16.5366 9.13623 15.6616C8.26123 14.7866 7.82373 13.7241 7.82373 12.4741C7.82373 12.3107 7.83324 12.1536 7.85226 12.0029C7.87129 11.8521 7.90181 11.6951 7.94383 11.5317L5.81993 9.4398Z" fill="currentColor"/>
</svg>
