<svg viewBox="0 0 32 33" fill="none" xmlns="http://www.w3.org/2000/svg">
<path d="M10.0009 26.1677H27.9982" stroke="currentColor" stroke-width="2.7" stroke-linecap="round"/>
<path d="M10.0009 26.1673C10.0009 24.5106 8.65799 23.1677 7.00138 23.1677C5.34477 23.1677 4.00183 24.5106 4.00183 26.1673C4.00183 27.8239 5.34477 29.1668 7.00138 29.1668C8.65799 29.1668 10.0009 27.8239 10.0009 26.1673Z" stroke="currentColor" stroke-width="2.7" stroke-linecap="round"/>
<path d="M21.9991 16.5H4.00183" stroke="currentColor" stroke-width="2.7" stroke-linecap="round"/>
<path d="M27.9983 16.4999C27.9983 14.8433 26.6554 13.5004 24.9988 13.5004C23.3421 13.5004 21.9992 14.8433 21.9992 16.4999C21.9992 18.1566 23.3421 19.4995 24.9988 19.4995C26.6554 19.4995 27.9983 18.1566 27.9983 16.4999Z" stroke="currentColor" stroke-width="2.7" stroke-linecap="round"/>
<path d="M13.0005 6.83301H4.00183" stroke="currentColor" stroke-width="2.7" stroke-linecap="round"/>
<path d="M18.9996 6.83301H27.9982" stroke="currentColor" stroke-width="2.7" stroke-linecap="round"/>
<path d="M18.9996 6.83292C18.9996 5.17632 17.6567 3.83337 16 3.83337C14.3434 3.83337 13.0005 5.17632 13.0005 6.83292C13.0005 8.48953 14.3434 9.83247 16 9.83247C17.6567 9.83247 18.9996 8.48953 18.9996 6.83292Z" stroke="currentColor" stroke-width="2.7" stroke-linecap="round"/>
</svg>
