<svg width="24" height="24" viewBox="0 0 24 24" fill="none" xmlns="http://www.w3.org/2000/svg">
<path d="M17.2894 1.125C15.2638 1.125 13.3132 2.025 12.0377 3.525C10.7623 2.025 8.81171 1.125 6.78606 1.125C3.1849 1.125 0.333984 3.9 0.333984 7.425C0.333984 9.45 1.15925 11.4 3.03485 13.65C4.76041 15.675 7.16118 17.85 10.1621 20.475L11.9627 22.125L13.6883 20.625C16.7643 17.85 19.165 15.75 20.9656 13.65C22.8412 11.4 23.6665 9.45 23.6665 7.425C23.6665 3.9 20.8906 1.125 17.2894 1.125ZM19.4651 12.45C17.8146 14.4 15.4138 16.575 12.4129 19.275L11.9627 19.65L11.6626 19.35L11.5876 19.2C8.58664 16.5 6.18587 14.4 4.53533 12.45C2.95983 10.575 2.20959 9 2.20959 7.425C2.20959 4.95 4.23524 3 6.78606 3C8.21152 3 9.63697 3.675 10.6123 4.725L12.0377 6.375L13.4632 4.725C14.4385 3.6 15.864 3 17.2894 3C19.8403 3 21.8659 4.95 21.8659 7.425C21.7909 9 21.1157 10.5 19.4651 12.45Z" fill="#C7C7C7"/>
</svg>
