<svg viewBox="0 0 32 32" fill="none" xmlns="http://www.w3.org/2000/svg">
<path d="M16.0001 29.3333C13.5374 29.3333 11.5278 28.9611 9.97126 28.2166C8.4147 27.4722 7.63641 26.5111 7.63641 25.3333C7.63641 24.5555 7.97328 23.8777 8.64702 23.3C9.13548 22.8811 9.75826 22.5264 10.5154 22.236C11.0193 22.0427 11.5642 22.3419 11.727 22.8565L11.9249 23.482C12.0953 24.0206 11.779 24.582 11.2699 24.8268C11.2315 24.8453 11.1936 24.8641 11.1561 24.8833C10.8309 25.05 10.6102 25.2 10.494 25.3333C10.796 25.6888 11.493 26 12.5849 26.2666C13.6768 26.5333 14.8152 26.6666 16.0001 26.6666C17.1849 26.6666 18.3291 26.5333 19.4326 26.2666C20.5362 26 21.2389 25.6888 21.541 25.3333C21.4248 25.2 21.2041 25.05 20.8788 24.8833C20.8414 24.8641 20.8034 24.8453 20.765 24.8268C20.2559 24.582 19.9397 24.0206 20.1101 23.482L20.308 22.8565C20.4708 22.3419 21.0157 22.0426 21.5194 22.2365C22.2737 22.5268 22.8907 22.8813 23.3705 23.3C24.0326 23.8777 24.3637 24.5555 24.3637 25.3333C24.3637 26.5111 23.5854 27.4722 22.0288 28.2166C20.4723 28.9611 18.4627 29.3333 16.0001 29.3333ZM16.0001 20.4333C16.4182 19.7 16.8596 19.0277 17.3243 18.4166C17.7889 17.8055 18.242 17.2222 18.6834 16.6666C19.543 15.6 20.2283 14.6388 20.7394 13.7833C21.2506 12.9277 21.5061 11.8666 21.5061 10.6C21.5061 9.13329 20.9718 7.88885 19.9031 6.86663C18.8344 5.8444 17.5334 5.33329 16.0001 5.33329C14.4667 5.33329 13.1657 5.8444 12.097 6.86663C11.0283 7.88885 10.494 9.13329 10.494 10.6C10.494 11.8666 10.7495 12.9277 11.2607 13.7833C11.7718 14.6388 12.4571 15.6 13.3167 16.6666C13.7581 17.2222 14.2112 17.8055 14.6758 18.4166C15.1405 19.0277 15.5819 19.7 16.0001 20.4333ZM16.0001 25.3333C15.7445 25.3333 15.5122 25.2611 15.3031 25.1166C15.094 24.9722 14.943 24.7777 14.8501 24.5333C14.3157 22.9555 13.642 21.6333 12.8288 20.5666C12.0157 19.5 11.2258 18.4777 10.4591 17.5C9.71571 16.5222 9.07101 15.5111 8.52505 14.4666C7.97909 13.4222 7.70611 12.1333 7.70611 10.6C7.70611 8.37774 8.50763 6.49996 10.1107 4.96663C11.7137 3.43329 13.6768 2.66663 16.0001 2.66663C18.3233 2.66663 20.2864 3.43329 21.8894 4.96663C23.4925 6.49996 24.294 8.37774 24.294 10.6C24.294 12.1333 24.0268 13.4222 23.4925 14.4666C22.9581 15.5111 22.3076 16.5222 21.541 17.5C20.7975 18.4777 20.0134 19.5 19.1887 20.5666C18.3639 21.6333 17.6844 22.9555 17.1501 24.5333C17.0571 24.7777 16.9061 24.9722 16.697 25.1166C16.4879 25.2611 16.2556 25.3333 16.0001 25.3333ZM16.0001 13.4333C16.8132 13.4333 17.5102 13.1555 18.091 12.6C18.6718 12.0444 18.9622 11.3777 18.9622 10.6C18.9622 9.82218 18.6718 9.15552 18.091 8.59996C17.5102 8.0444 16.8132 7.76663 16.0001 7.76663C15.1869 7.76663 14.49 8.0444 13.9091 8.59996C13.3283 9.15552 13.0379 9.82218 13.0379 10.6C13.0379 11.3777 13.3283 12.0444 13.9091 12.6C14.49 13.1555 15.1869 13.4333 16.0001 13.4333Z" fill="currentColor"/>
</svg>