<svg viewBox="0 0 32 32" fill="none" xmlns="http://www.w3.org/2000/svg">
<path d="M4.12305 16.5752C4.18986 19.6723 5.405 22.7493 7.76847 25.1127C8.89562 26.2399 10.185 27.1059 11.5615 27.7107C13.1481 28.4078 14.8504 28.7579 16.5532 28.761C18.2714 28.7642 19.9902 28.4141 21.5911 27.7107M29.0296 16.5752C29.0667 14.8587 28.751 13.136 28.0826 11.5251C27.4748 10.0604 26.5753 8.68807 25.3842 7.49697C22.9461 5.05886 19.7487 3.84275 16.5532 3.84865C14.8905 3.85173 13.2282 4.18564 11.6737 4.85041" stroke="#2C2C2C" stroke-width="2" stroke-linecap="round" stroke-linejoin="round"/>
<path d="M20.0209 11.7425C20.8129 11.4464 21.5857 12.2193 21.2897 13.0113L17.9996 21.8128C17.6699 22.6948 16.4095 22.6569 16.1334 21.7567L15.1464 18.5392C15.0504 18.2265 14.8056 17.9817 14.4929 17.8858L11.2754 16.8988C10.3752 16.6226 10.3374 15.3623 11.2194 15.0326L20.0209 11.7425Z" stroke="#2C2C2C" stroke-width="2" stroke-linecap="round" stroke-linejoin="round"/>
</svg>
