<svg width="32" height="32" viewBox="0 0 32 32" fill="none" xmlns="http://www.w3.org/2000/svg">
<path d="M4.12305 16.5752C4.18986 19.6723 5.405 22.7493 7.76847 25.1127C8.89562 26.2399 10.185 27.1059 11.5615 27.7107C13.1481 28.4078 14.8504 28.7579 16.5532 28.761C18.2714 28.7642 19.9902 28.4141 21.5911 27.7107M29.0296 16.5752C29.0667 14.8587 28.751 13.136 28.0826 11.5251C27.4748 10.0604 26.5753 8.68807 25.3842 7.49697C22.9461 5.05886 19.7487 3.84275 16.5532 3.84865C14.8905 3.85173 13.2282 4.18564 11.6737 4.85041" stroke="#2C2C2C" stroke-width="2" stroke-linecap="round" stroke-linejoin="round"/>
<path d="M20.0207 11.7424C20.8127 11.4463 21.5856 12.2191 21.2895 13.0111L17.9994 21.8127C17.6697 22.6947 16.4094 22.6568 16.1332 21.7566L15.1462 18.5391C15.0503 18.2264 14.8055 17.9816 14.4927 17.8857L11.2753 16.8986C10.3751 16.6225 10.3372 15.3622 11.2192 15.0325L20.0207 11.7424Z" stroke="#2C2C2C" stroke-width="2" stroke-linecap="round" stroke-linejoin="round"/>
</svg>
