<svg width="24" height="25" viewBox="0 0 24 25" fill="none" xmlns="http://www.w3.org/2000/svg">
  <path fill-rule="evenodd" clip-rule="evenodd" d="M15.96 21.8082C15.7446 21.9217 15.4523 22.0574 15.081 22.1907C14.2511 22.4885 13.0358 22.7708 11.4168 22.7708C5.42213 22.7708 0.562508 17.9112 0.562508 11.9165C0.562508 5.92188 5.42213 1.06226 11.4168 1.06226C17.4114 1.06226 22.2711 5.92188 22.2711 11.9165C22.2711 13.4895 21.9876 14.7032 21.6926 15.539C21.5564 15.9249 21.4181 16.2292 21.305 16.4504L23.3894 22.7035C23.5016 23.0404 23.414 23.4118 23.1629 23.6629C22.9118 23.914 22.5404 24.0017 22.2035 23.8894L15.96 21.8082ZM2.43751 11.9165C2.43751 6.95741 6.45767 2.93726 11.4168 2.93726C16.3759 2.93726 20.3961 6.95742 20.3961 11.9165C20.3961 13.2602 20.1545 14.2632 19.9245 14.915C19.8093 15.2415 19.6964 15.4811 19.6173 15.632C19.5777 15.7075 19.5466 15.7608 19.5279 15.7916C19.5217 15.8017 19.5169 15.8093 19.5136 15.8146C19.3508 16.0491 19.2967 16.3547 19.3939 16.6464L21.0176 21.5177L16.1643 19.8999C16.1275 19.8868 16.0899 19.8761 16.0519 19.8677C15.924 19.8394 15.7951 19.8388 15.6724 19.8626C15.5833 19.8797 15.4957 19.9101 15.4126 19.954C15.3715 19.9757 15.332 20.0004 15.2944 20.028C15.2902 20.0308 15.2842 20.0348 15.2764 20.0398C15.2497 20.0569 15.2016 20.0866 15.1318 20.1248C14.9921 20.2012 14.765 20.312 14.4476 20.4259C13.8146 20.6531 12.8133 20.8958 11.4168 20.8958C6.45767 20.8958 2.43751 16.8756 2.43751 11.9165Z" fill="white"/>
</svg>
