<svg viewBox="0 0 32 33" fill="none" xmlns="http://www.w3.org/2000/svg">
<g clip-path="url(#clip0_7201_8075)">
<path d="M16 32.25C7.34722 32.25 0.25 25.1528 0.25 16.5C0.25 7.75 7.34722 0.75 16 0.75C24.75 0.75 31.75 7.84722 31.75 16.5972C31.75 25.25 24.75 32.25 16 32.25ZM20.5694 18.6389C23.6806 19.2222 25.8194 20.9722 26.9861 23.8889C30.4861 18.8333 30 11.1528 24.5556 6.48611C19.1111 1.91667 10.9444 2.30556 6.08333 7.75C1.51389 12.8056 2 19.8056 4.91667 23.8889C5.40278 22.5278 6.27778 21.3611 7.44444 20.3889C8.61111 19.4167 9.875 18.9306 11.3333 18.6389C7.73611 15.8194 7.44444 10.5694 10.4583 7.45833C13.4722 4.34722 18.2361 4.25 21.25 7.26389C22.8056 8.625 23.5833 10.375 23.5833 12.4167C23.5833 14.9444 22.6111 16.9861 20.5694 18.6389ZM16 20.9722C14.8333 20.9722 13.6667 20.9722 12.5 20.9722C9.58333 21.0694 7.15278 23.4028 6.95833 26.3194C6.95833 26.4167 7.05555 26.5139 7.05555 26.6111C9.38889 28.6528 12.1111 29.8194 15.2222 29.9167C18.7222 30.1111 21.8333 29.0417 24.4583 26.9028C24.9444 26.5139 24.9444 26.5139 24.8472 25.9306C24.4583 23.1111 22.125 20.9722 19.2083 20.9722C18.2361 20.9722 17.0694 20.9722 16 20.9722ZM16 17.6667C18.8194 17.6667 21.0556 15.4306 21.0556 12.6111C21.0556 9.79167 18.8194 7.55555 16 7.55555C13.1806 7.55555 10.9444 9.79167 10.9444 12.6111C10.9444 15.3333 13.1806 17.6667 16 17.6667Z" fill="currentColor"/>
</g>
<defs>
<clipPath id="clip0_7201_8075">
<rect width="32" height="32" fill="currentColor" transform="translate(0 0.5)"/>
</clipPath>
</defs>
</svg>
