<svg viewBox="0 0 24 24" fill="none" xmlns="http://www.w3.org/2000/svg">
<g clip-path="url(#clip0_8387_2471)">
<path d="M12 23.8125C5.51042 23.8125 0.1875 18.4896 0.1875 12C0.1875 5.4375 5.51042 0.1875 12 0.1875C18.5625 0.1875 23.8125 5.51042 23.8125 12.0729C23.8125 18.5625 18.5625 23.8125 12 23.8125ZM15.4271 13.6042C17.7604 14.0417 19.3646 15.3542 20.2396 17.5417C22.8646 13.75 22.5 7.98958 18.4167 4.48958C14.3333 1.0625 8.20833 1.35417 4.5625 5.4375C1.13542 9.22917 1.5 14.4792 3.6875 17.5417C4.05208 16.5208 4.70833 15.6458 5.58333 14.9167C6.45833 14.1875 7.40625 13.8229 8.5 13.6042C5.80208 11.4896 5.58333 7.55208 7.84375 5.21875C10.1042 2.88542 13.6771 2.8125 15.9375 5.07292C17.1042 6.09375 17.6875 7.40625 17.6875 8.9375C17.6875 10.8333 16.9583 12.3646 15.4271 13.6042ZM12 15.3542C11.125 15.3542 10.25 15.3542 9.375 15.3542C7.1875 15.4271 5.36458 17.1771 5.21875 19.3646C5.21875 19.4375 5.29167 19.5104 5.29167 19.5833C7.04167 21.1146 9.08333 21.9896 11.4167 22.0625C14.0417 22.2083 16.375 21.4062 18.3438 19.8021C18.7083 19.5104 18.7083 19.5104 18.6354 19.0729C18.3437 16.9583 16.5937 15.3542 14.4062 15.3542C13.6771 15.3542 12.8021 15.3542 12 15.3542ZM12 12.875C14.1146 12.875 15.7917 11.1979 15.7917 9.08333C15.7917 6.96875 14.1146 5.29167 12 5.29167C9.88542 5.29167 8.20833 6.96875 8.20833 9.08333C8.20833 11.125 9.88542 12.875 12 12.875Z" fill="currentColor"/>
</g>
<defs>
<clipPath id="clip0_8387_2471">
<rect width="24" height="24" fill="white"/>
</clipPath>
</defs>
</svg>
