<svg width="32" height="32" viewBox="0 0 32 32" fill="none" xmlns="http://www.w3.org/2000/svg">
<path d="M19.7766 2.31004C18.628 2.29875 17.6292 3.22397 17.6292 4.43256V7.01455L12.2359 5.67111C12.0681 5.62926 11.9008 5.60819 11.7365 5.60669C10.588 5.5954 9.5892 6.52062 9.5892 7.72921V10.3012L4.24583 8.96777C2.9025 8.63316 1.59912 9.64697 1.59912 11.0254V25.3586C1.59912 26.5772 2.42809 27.636 3.61162 27.9306L12.151 30.0581C13.4944 30.3928 14.7977 29.3789 14.7977 28.0005V13.6673C14.7977 12.7933 14.3698 12.0042 13.6941 11.5198C13.6833 11.4845 13.6858 11.4454 13.7077 11.4134C13.7452 11.359 13.8126 11.333 13.8755 11.352C14.9991 11.6916 16.0678 12.8402 16.1777 14.2886L16.5482 25.2258C16.5577 25.5924 16.8024 25.905 17.1475 26.0199L20.1437 26.764C21.4871 27.0986 22.7905 26.0848 22.7905 24.7064C22.8258 19.9769 22.8156 15.1675 22.8168 10.4231C22.8168 9.77882 22.5991 9.2844 22.3544 8.92482C22.3147 8.86489 22.273 8.80595 22.2286 8.74902C22.1751 8.6811 22.1167 8.61668 22.0568 8.55375C21.9674 8.45986 21.872 8.37046 21.7691 8.29056L21.7672 8.28861C21.7248 8.24606 21.7127 8.17974 21.7477 8.12979C21.7851 8.07536 21.8525 8.04939 21.9154 8.06837C23.039 8.40797 24.1127 9.55663 24.2176 11.0049L24.5881 21.9422C24.5976 22.3057 24.8398 22.6164 25.1824 22.7263L28.1837 23.4754C29.527 23.81 30.8304 22.7962 30.8304 21.4178V7.08452C30.8304 5.86594 30.0014 4.80717 28.8179 4.51252L20.2785 2.385C20.1107 2.34315 19.9434 2.32207 19.7791 2.32058L19.7766 2.31004Z" fill="white"/>
</svg>
