<svg width="25" height="24" viewBox="0 0 25 24" fill="none" xmlns="http://www.w3.org/2000/svg">
<path d="M15.3323 1.73253C14.4709 1.72406 13.7218 2.41798 13.7218 3.32442V5.26091L9.67681 4.25334C9.55097 4.22195 9.4255 4.20614 9.30228 4.20502C8.44085 4.19655 7.69178 4.89047 7.69178 5.79691V7.72591L3.68425 6.72582C2.67675 6.47487 1.69922 7.23523 1.69922 8.26902V19.019C1.69922 19.9329 2.32095 20.727 3.20859 20.948L9.61314 22.5436C10.6206 22.7946 11.5982 22.0342 11.5982 21.0004V10.2505C11.5982 9.59497 11.2772 9.00317 10.7705 8.63984C10.7624 8.61336 10.7642 8.58403 10.7807 8.56006C10.8088 8.51923 10.8593 8.49975 10.9065 8.51399C11.7492 8.76869 12.5507 9.63018 12.6331 10.7164L12.911 18.9193C12.9182 19.1943 13.1017 19.4287 13.3605 19.5149L15.6077 20.073C16.6152 20.3239 17.5927 19.5636 17.5927 18.5298C17.6192 14.9827 17.6116 11.3756 17.6125 7.8173C17.6125 7.33411 17.4492 6.9633 17.2657 6.69361C17.2359 6.64866 17.2046 6.60447 17.1713 6.56177C17.1312 6.51083 17.0874 6.46251 17.0425 6.41531C16.9754 6.34489 16.9039 6.27785 16.8267 6.21792L16.8253 6.21646C16.7935 6.18454 16.7844 6.1348 16.8106 6.09735C16.8387 6.05652 16.8893 6.03704 16.9365 6.05127C17.7792 6.30598 18.5844 7.16747 18.6631 8.2537L18.941 16.4566C18.9481 16.7293 19.1297 16.9623 19.3867 17.0447L21.6376 17.6065C22.6451 17.8575 23.6227 17.0971 23.6227 16.0633V5.31339C23.6227 4.39945 23.0009 3.60538 22.1133 3.38439L15.7087 1.78875C15.5829 1.75736 15.4574 1.74156 15.3342 1.74043L15.3323 1.73253Z" fill="#2C2C2C"/>
</svg>
