<svg width="32" height="32" viewBox="0 0 32 32" fill="none" xmlns="http://www.w3.org/2000/svg">
<path d="M13.9846 22.8642C15.924 22.8642 17.735 22.2333 19.2071 21.1818L24.7451 26.7198C25.0021 26.9768 25.3409 27.1053 25.6914 27.1053C26.4508 27.1053 27 26.5211 27 25.7734C27 25.4229 26.8831 25.0958 26.6261 24.8387L21.1232 19.3241C22.2798 17.8053 22.9692 15.9242 22.9692 13.8796C22.9692 8.9375 18.9267 4.89502 13.9846 4.89502C9.03077 4.89502 4.99997 8.9375 4.99997 13.8796C4.99997 18.8217 9.03077 22.8642 13.9846 22.8642ZM13.9846 20.9248C10.1173 20.9248 6.93943 17.7352 6.93943 13.8796C6.93943 10.0241 10.1173 6.83448 13.9846 6.83448C17.8401 6.83448 21.0297 10.0241 21.0297 13.8796C21.0297 17.7352 17.8401 20.9248 13.9846 20.9248Z" fill="white" stroke="white" stroke-width="0.55"/>
</svg>
