<svg viewBox="0 0 32 32" fill="none" xmlns="http://www.w3.org/2000/svg">
<path d="M13.9845 22.864C15.924 22.864 17.7349 22.2331 19.2071 21.1815L24.745 26.7195C25.0021 26.9766 25.3409 27.1051 25.6914 27.1051C26.4508 27.1051 26.9999 26.5209 26.9999 25.7732C26.9999 25.4227 26.8831 25.0955 26.6261 24.8385L21.1231 19.3239C22.2798 17.805 22.9691 15.924 22.9691 13.8794C22.9691 8.93726 18.9267 4.89478 13.9845 4.89478C9.03074 4.89478 4.99994 8.93726 4.99994 13.8794C4.99994 18.8215 9.03074 22.864 13.9845 22.864ZM13.9845 20.9245C10.1173 20.9245 6.9394 17.7349 6.9394 13.8794C6.9394 10.0238 10.1173 6.83423 13.9845 6.83423C17.8401 6.83423 21.0297 10.0238 21.0297 13.8794C21.0297 17.7349 17.8401 20.9245 13.9845 20.9245Z" fill="currentColor" stroke="currentColor" stroke-width="0.55"/>
</svg>
