<svg viewBox="0 0 25 24" fill="none" xmlns="http://www.w3.org/2000/svg">
<path d="M12.3574 3.68659C12.4025 3.5487 12.5975 3.5487 12.6426 3.68659L14.6498 9.83111C14.67 9.89279 14.7275 9.93453 14.7924 9.93453H21.2863C21.4318 9.93453 21.4921 10.1209 21.3742 10.2061L16.1219 14.0016C16.069 14.0398 16.0469 14.1078 16.0672 14.1698L18.0737 20.312C18.1188 20.4501 17.961 20.5652 17.8433 20.4802L12.5879 16.6824C12.5354 16.6445 12.4646 16.6445 12.4121 16.6824L7.15675 20.4802C7.03903 20.5652 6.8812 20.4501 6.9263 20.312L8.93282 14.1698C8.95307 14.1078 8.93095 14.0398 8.8781 14.0016L3.62581 10.2061C3.50788 10.1209 3.56817 9.93453 3.71367 9.93453H10.2076C10.2725 9.93453 10.33 9.89279 10.3502 9.83111L12.3574 3.68659Z" fill="currentColor" stroke="currentColor" stroke-width="1.9"/>
</svg>
