<svg width="246" height="246" viewBox="0 0 246 246" fill="none" xmlns="http://www.w3.org/2000/svg">
<g clip-path="url(#clip0_8401_2919)">
<mask id="mask0_8401_2919" style="mask-type:luminance" maskUnits="userSpaceOnUse" x="0" y="0" width="246" height="246">
<path d="M246 123C246 55.069 190.931 0 123 0C55.069 0 0 55.069 0 123C0 190.931 55.069 246 123 246C190.931 246 246 190.931 246 123Z" fill="white"/>
</mask>
<g mask="url(#mask0_8401_2919)">
<path d="M246 123C246 55.069 190.931 0 123 0C55.069 0 0 55.069 0 123C0 190.931 55.069 246 123 246C190.931 246 246 190.931 246 123Z" fill="#027EF3"/>
<g filter="url(#filter0_f_8401_2919)">
<path d="M220.5 191C308.037 191 379 120.037 379 32.5C379 -55.0371 308.037 -126 220.5 -126C132.963 -126 62 -55.0371 62 32.5C62 120.037 132.963 191 220.5 191Z" fill="url(#paint0_radial_8401_2919)"/>
</g>
<path d="M41.7603 138.127C42.0522 137.981 42.4901 137.908 43.0739 137.908C43.6578 137.908 44.1686 138.152 44.6065 138.638C45.0444 139.076 45.2633 139.587 45.2633 140.171C45.2633 141.241 44.8011 142.02 43.8767 142.506C42.0279 143.576 40.0331 144.452 37.8924 145.133C35.8003 145.815 33.246 146.155 30.2295 146.155C27.2617 146.155 24.4885 145.669 21.9099 144.695C19.3799 143.722 17.1905 142.311 15.3417 140.463C11.3522 136.57 9.35742 131.316 9.35742 124.699C9.35742 118.131 11.3522 112.876 15.3417 108.936C19.1853 105.141 24.1723 103.243 30.3025 103.243C33.2704 103.243 35.8003 103.608 37.8924 104.338C40.0331 105.068 41.663 105.749 42.782 106.381C43.901 106.965 44.5822 107.452 44.8254 107.841C45.1174 108.181 45.2633 108.644 45.2633 109.227C45.2633 109.811 45.0444 110.346 44.6065 110.833C44.1686 111.271 43.6578 111.49 43.0739 111.49C42.5387 111.49 42.1009 111.417 41.7603 111.271C40.1548 110.395 38.5005 109.714 36.7977 109.227C35.1435 108.692 33.0757 108.425 30.5944 108.425C28.1131 108.425 25.8508 108.863 23.8074 109.738C21.8126 110.565 20.1341 111.709 18.7718 113.168C16.0959 116.088 14.7822 119.931 14.8309 124.699C14.8309 129.467 16.1445 133.311 18.7718 136.23C21.6909 139.392 25.7048 140.974 30.8134 140.974C33.1487 140.974 35.1435 140.73 36.7977 140.244C38.5005 139.709 40.1548 139.003 41.7603 138.127Z" fill="white"/>
<path d="M81.4583 140.171C82.2367 140.171 82.8692 140.438 83.3558 140.974C83.8909 141.46 84.1585 142.093 84.1585 142.871C84.1585 143.601 83.8909 144.233 83.3558 144.768C82.8692 145.304 82.2367 145.571 81.4583 145.571H60.2213C59.1509 145.571 58.2508 145.206 57.521 144.477C56.7912 143.747 56.4263 142.847 56.4263 141.776V106.308C56.4263 105.579 56.6939 104.946 57.2291 104.411C57.7643 103.827 58.3968 103.535 59.1266 103.535C59.8564 103.535 60.4889 103.803 61.0241 104.338C61.6079 104.873 61.8998 105.53 61.8998 106.308V140.171H81.4583Z" fill="white"/>
<path d="M120.499 140.463C121.18 140.463 121.764 140.73 122.251 141.265C122.786 141.752 123.054 142.36 123.054 143.09C123.054 143.771 122.786 144.355 122.251 144.841C121.764 145.328 121.18 145.571 120.499 145.571H96.489C95.7592 145.571 95.1268 145.304 94.5916 144.768C94.0564 144.233 93.7888 143.601 93.7888 142.871V106.6C93.7888 105.87 94.0564 105.238 94.5916 104.703C95.1268 104.119 95.7592 103.827 96.489 103.827H120.499C121.18 103.827 121.764 104.095 122.251 104.63C122.786 105.116 123.054 105.7 123.054 106.381C123.054 107.062 122.786 107.671 122.251 108.206C121.764 108.692 121.18 108.936 120.499 108.936H99.2623V122.145H118.31C118.991 122.145 119.575 122.388 120.061 122.875C120.597 123.361 120.864 123.969 120.864 124.699C120.864 125.38 120.621 125.988 120.134 126.524C119.648 127.01 119.04 127.253 118.31 127.253H99.2623V140.463H120.499Z" fill="white"/>
<path d="M161.584 140.463C162.265 140.463 162.849 140.73 163.335 141.265C163.87 141.752 164.138 142.36 164.138 143.09C164.138 143.771 163.87 144.355 163.335 144.841C162.849 145.328 162.265 145.571 161.584 145.571H137.574C136.844 145.571 136.211 145.304 135.676 144.768C135.141 144.233 134.873 143.601 134.873 142.871V106.6C134.873 105.87 135.141 105.238 135.676 104.703C136.211 104.119 136.844 103.827 137.574 103.827H161.584C162.265 103.827 162.849 104.095 163.335 104.63C163.87 105.116 164.138 105.7 164.138 106.381C164.138 107.062 163.87 107.671 163.335 108.206C162.849 108.692 162.265 108.936 161.584 108.936H140.347V122.145H159.394C160.076 122.145 160.659 122.388 161.146 122.875C161.681 123.361 161.949 123.969 161.949 124.699C161.949 125.38 161.705 125.988 161.219 126.524C160.732 127.01 160.124 127.253 159.394 127.253H140.347V140.463H161.584Z" fill="white"/>
<path d="M220.066 119.822L273.946 65.9415C275.016 64.8715 275.016 63.1315 273.946 62.0515C272.876 60.9815 271.126 60.9815 270.056 62.0515L216.176 115.932L220.066 119.822Z" fill="white"/>
<path d="M206.944 125.161L153.064 179.051C151.994 180.121 151.994 181.861 153.064 182.941C154.134 184.011 155.884 184.011 156.954 182.941L210.844 129.051L206.944 125.161Z" fill="white"/>
<path d="M273.943 179.052L156.943 62.0515C155.873 60.9815 154.123 60.9815 153.053 62.0515C151.982 63.1215 151.982 64.8615 153.053 65.9415L270.053 182.942C270.593 183.482 271.293 183.752 271.993 183.752C272.693 183.752 273.403 183.482 273.933 182.942C275.023 181.862 275.023 180.122 273.943 179.052Z" fill="white"/>
</g>
</g>
<defs>
<filter id="filter0_f_8401_2919" x="-138" y="-326" width="717" height="717" filterUnits="userSpaceOnUse" color-interpolation-filters="sRGB">
<feFlood flood-opacity="0" result="BackgroundImageFix"/>
<feBlend mode="normal" in="SourceGraphic" in2="BackgroundImageFix" result="shape"/>
<feGaussianBlur stdDeviation="100" result="effect1_foregroundBlur_8401_2919"/>
</filter>
<radialGradient id="paint0_radial_8401_2919" cx="0" cy="0" r="1" gradientUnits="userSpaceOnUse" gradientTransform="translate(220.5 32.5) rotate(90) scale(158.5)">
<stop stop-color="white"/>
<stop offset="1" stop-color="#00D8CA"/>
</radialGradient>
<clipPath id="clip0_8401_2919">
<rect width="246" height="246" fill="white"/>
</clipPath>
</defs>
</svg>
