<svg width="246" height="246" viewBox="0 0 246 246" fill="none" xmlns="http://www.w3.org/2000/svg">
<g clip-path="url(#clip0_8437_2919)">
<mask id="mask0_8437_2919" style="mask-type:luminance" maskUnits="userSpaceOnUse" x="0" y="0" width="246" height="246">
<path d="M246 123C246 55.069 190.931 0 123 0C55.069 0 0 55.069 0 123C0 190.931 55.069 246 123 246C190.931 246 246 190.931 246 123Z" fill="white"/>
</mask>
<g mask="url(#mask0_8437_2919)">
<path d="M246 123C246 55.069 190.931 0 123 0C55.069 0 0 55.069 0 123C0 190.931 55.069 246 123 246C190.931 246 246 190.931 246 123Z" fill="white"/>
<path d="M41.7598 138.127C42.0517 137.981 42.4896 137.908 43.0734 137.908C43.6573 137.908 44.1681 138.152 44.606 138.638C45.0439 139.076 45.2628 139.587 45.2628 140.171C45.2628 141.241 44.8006 142.02 43.8762 142.506C42.0274 143.576 40.0326 144.452 37.8919 145.133C35.7998 145.815 33.2455 146.155 30.2291 146.155C27.2612 146.155 24.488 145.669 21.9094 144.695C19.3794 143.722 17.1901 142.311 15.3412 140.463C11.3517 136.57 9.35693 131.316 9.35693 124.699C9.35693 118.131 11.3517 112.876 15.3412 108.936C19.1848 105.141 24.1718 103.243 30.302 103.243C33.2699 103.243 35.7998 103.608 37.8919 104.338C40.0326 105.068 41.6625 105.749 42.7815 106.381C43.9005 106.965 44.5817 107.452 44.8249 107.841C45.1169 108.181 45.2628 108.644 45.2628 109.227C45.2628 109.811 45.0439 110.346 44.606 110.833C44.1681 111.271 43.6573 111.49 43.0734 111.49C42.5383 111.49 42.1004 111.417 41.7598 111.271C40.1543 110.395 38.5001 109.714 36.7972 109.227C35.143 108.692 33.0753 108.425 30.594 108.425C28.1127 108.425 25.8503 108.863 23.8069 109.738C21.8121 110.565 20.1336 111.709 18.7713 113.168C16.0954 116.088 14.7817 119.931 14.8304 124.699C14.8304 129.467 16.144 133.311 18.7713 136.23C21.6905 139.392 25.7043 140.974 30.8129 140.974C33.1482 140.974 35.143 140.73 36.7972 140.244C38.5001 139.709 40.1543 139.003 41.7598 138.127Z" fill="#0280F2"/>
<path d="M81.4577 140.171C82.2362 140.171 82.8687 140.438 83.3552 140.974C83.8904 141.46 84.158 142.093 84.158 142.871C84.158 143.601 83.8904 144.233 83.3552 144.768C82.8687 145.304 82.2362 145.571 81.4577 145.571H60.2207C59.1503 145.571 58.2502 145.206 57.5205 144.477C56.7907 143.747 56.4258 142.847 56.4258 141.776V106.308C56.4258 105.579 56.6933 104.946 57.2285 104.411C57.7637 103.827 58.3962 103.535 59.126 103.535C59.8558 103.535 60.4883 103.803 61.0235 104.338C61.6073 104.873 61.8992 105.53 61.8992 106.308V140.171H81.4577Z" fill="#0280F2"/>
<path d="M120.499 140.463C121.18 140.463 121.764 140.73 122.25 141.265C122.785 141.752 123.053 142.36 123.053 143.09C123.053 143.771 122.785 144.355 122.25 144.841C121.764 145.328 121.18 145.571 120.499 145.571H96.4886C95.7588 145.571 95.1263 145.304 94.5911 144.768C94.0559 144.233 93.7883 143.601 93.7883 142.871V106.6C93.7883 105.87 94.0559 105.238 94.5911 104.703C95.1263 104.119 95.7588 103.827 96.4886 103.827H120.499C121.18 103.827 121.764 104.095 122.25 104.63C122.785 105.116 123.053 105.7 123.053 106.381C123.053 107.062 122.785 107.671 122.25 108.206C121.764 108.692 121.18 108.936 120.499 108.936H99.2618V122.145H118.309C118.991 122.145 119.574 122.388 120.061 122.875C120.596 123.361 120.864 123.969 120.864 124.699C120.864 125.38 120.62 125.988 120.134 126.524C119.647 127.01 119.039 127.253 118.309 127.253H99.2618V140.463H120.499Z" fill="#0280F2"/>
<path d="M161.583 140.463C162.264 140.463 162.848 140.73 163.335 141.265C163.87 141.752 164.138 142.36 164.138 143.09C164.138 143.771 163.87 144.355 163.335 144.841C162.848 145.328 162.264 145.571 161.583 145.571H137.573C136.843 145.571 136.211 145.304 135.676 144.768C135.14 144.233 134.873 143.601 134.873 142.871V106.6C134.873 105.87 135.14 105.238 135.676 104.703C136.211 104.119 136.843 103.827 137.573 103.827H161.583C162.264 103.827 162.848 104.095 163.335 104.63C163.87 105.116 164.138 105.7 164.138 106.381C164.138 107.062 163.87 107.671 163.335 108.206C162.848 108.692 162.264 108.936 161.583 108.936H140.346V122.145H159.394C160.075 122.145 160.659 122.388 161.145 122.875C161.681 123.361 161.948 123.969 161.948 124.699C161.948 125.38 161.705 125.988 161.218 126.524C160.732 127.01 160.124 127.253 159.394 127.253H140.346V140.463H161.583Z" fill="#0280F2"/>
<path d="M220.066 119.822L273.946 65.9415C275.016 64.8715 275.016 63.1315 273.946 62.0515C272.876 60.9815 271.126 60.9815 270.056 62.0515L216.176 115.932L220.066 119.822Z" fill="#0280F2"/>
<path d="M206.944 125.161L153.064 179.051C151.994 180.121 151.994 181.861 153.064 182.941C154.134 184.011 155.884 184.011 156.954 182.941L210.844 129.051L206.944 125.161Z" fill="#0280F2"/>
<path d="M273.943 179.052L156.943 62.0515C155.872 60.9815 154.123 60.9815 153.053 62.0515C151.982 63.1215 151.982 64.8615 153.053 65.9415L270.053 182.942C270.593 183.482 271.293 183.752 271.993 183.752C272.692 183.752 273.403 183.482 273.933 182.942C275.022 181.862 275.023 180.122 273.943 179.052Z" fill="#0280F2"/>
</g>
</g>
<defs>
<clipPath id="clip0_8437_2919">
<rect width="246" height="246" fill="white"/>
</clipPath>
</defs>
</svg>
